<mxfile host="app.diagrams.net" modified="2023-11-21T18:27:13.821Z" agent="Mozilla/5.0 (Macintosh; Intel Mac OS X 10_15_7) AppleWebKit/537.36 (KHTML, like Gecko) Chrome/119.0.0.0 Safari/537.36" etag="AWd32bdil_tQP51Mj4ep" version="22.1.3" type="device">
  <diagram id="6a731a19-8d31-9384-78a2-239565b7b9f0" name="Page-1">
    <mxGraphModel dx="1656" dy="1015" grid="1" gridSize="10" guides="1" tooltips="1" connect="1" arrows="1" fold="1" page="1" pageScale="1" pageWidth="1169" pageHeight="827" background="none" math="0" shadow="0">
      <root>
        <mxCell id="0" />
        <mxCell id="1" parent="0" />
        <mxCell id="b0M6ai2X8rx_W-r-B3q4-1782" style="edgeStyle=orthogonalEdgeStyle;rounded=0;orthogonalLoop=1;jettySize=auto;html=1;exitX=1;exitY=0.5;exitDx=0;exitDy=0;" edge="1" parent="1" source="1749">
          <mxGeometry relative="1" as="geometry">
            <mxPoint x="202" y="140" as="targetPoint" />
          </mxGeometry>
        </mxCell>
        <mxCell id="1749" value="Features" style="rounded=1;whiteSpace=wrap;html=1;shadow=0;labelBackgroundColor=none;strokeColor=none;strokeWidth=3;fillColor=#2F5B7C;fontFamily=Helvetica;fontSize=16;fontColor=#FFFFFF;align=center;fontStyle=1;spacing=5;arcSize=7;perimeterSpacing=2;" parent="1" vertex="1">
          <mxGeometry x="30" y="70" width="190" height="90" as="geometry" />
        </mxCell>
        <mxCell id="1753" value="About" style="rounded=1;whiteSpace=wrap;html=1;shadow=0;labelBackgroundColor=none;strokeColor=none;strokeWidth=3;fillColor=#e85642;fontFamily=Helvetica;fontSize=14;fontColor=#FFFFFF;align=center;spacing=5;fontStyle=1;arcSize=7;perimeterSpacing=2;" parent="1" vertex="1">
          <mxGeometry x="50" y="193" width="150" height="117" as="geometry" />
        </mxCell>
        <mxCell id="1756" value="Author" style="rounded=1;whiteSpace=wrap;html=1;shadow=0;labelBackgroundColor=none;strokeColor=#6c8ebf;strokeWidth=3;fillColor=#dae8fc;fontFamily=Helvetica;fontSize=14;align=center;spacing=5;fontStyle=0;arcSize=7;perimeterSpacing=2;" parent="1" vertex="1">
          <mxGeometry x="320" y="236.5" width="150" height="30" as="geometry" />
        </mxCell>
        <mxCell id="1760" value="Info" style="rounded=1;whiteSpace=wrap;html=1;shadow=0;labelBackgroundColor=none;strokeColor=none;strokeWidth=3;fillColor=#1699d3;fontFamily=Helvetica;fontSize=14;fontColor=#FFFFFF;align=center;spacing=5;fontStyle=1;arcSize=7;perimeterSpacing=2;" parent="1" vertex="1">
          <mxGeometry x="50" y="590" width="150" height="60" as="geometry" />
        </mxCell>
        <mxCell id="1764" value="Authentication" style="rounded=1;whiteSpace=wrap;html=1;shadow=0;labelBackgroundColor=none;strokeColor=none;strokeWidth=3;fillColor=#F08705;fontFamily=Helvetica;fontSize=14;fontColor=#FFFFFF;align=center;spacing=5;fontStyle=1;arcSize=7;perimeterSpacing=2;" parent="1" vertex="1">
          <mxGeometry x="50" y="346" width="150" height="60" as="geometry" />
        </mxCell>
        <mxCell id="1767" value="AboutPage" style="rounded=1;whiteSpace=wrap;html=1;shadow=0;labelBackgroundColor=none;strokeColor=#6c8ebf;strokeWidth=3;fillColor=#dae8fc;fontFamily=Helvetica;fontSize=14;align=center;spacing=5;arcSize=7;perimeterSpacing=2;" parent="1" vertex="1">
          <mxGeometry x="995" y="236.5" width="150" height="30" as="geometry" />
        </mxCell>
        <mxCell id="1771" value="Home" style="rounded=1;whiteSpace=wrap;html=1;shadow=0;labelBackgroundColor=none;strokeColor=none;strokeWidth=3;fillColor=#12aab5;fontFamily=Helvetica;fontSize=14;fontColor=#FFFFFF;align=center;spacing=5;fontStyle=1;arcSize=7;perimeterSpacing=2;" parent="1" vertex="1">
          <mxGeometry x="50" y="451" width="150" height="105" as="geometry" />
        </mxCell>
        <mxCell id="b0M6ai2X8rx_W-r-B3q4-1779" value="ngGirls" style="rounded=1;whiteSpace=wrap;html=1;shadow=0;labelBackgroundColor=none;strokeColor=none;strokeWidth=3;fillColor=#A680B8;fontFamily=Helvetica;fontSize=14;fontColor=#FFFFFF;align=center;spacing=5;fontStyle=1;arcSize=7;perimeterSpacing=2;" vertex="1" parent="1">
          <mxGeometry x="50" y="670" width="150" height="60" as="geometry" />
        </mxCell>
        <mxCell id="b0M6ai2X8rx_W-r-B3q4-1780" value="Questions" style="rounded=1;whiteSpace=wrap;html=1;shadow=0;labelBackgroundColor=none;strokeColor=none;strokeWidth=3;fillColor=#7EA6E0;fontFamily=Helvetica;fontSize=14;fontColor=#FFFFFF;align=center;spacing=5;fontStyle=1;arcSize=7;perimeterSpacing=2;" vertex="1" parent="1">
          <mxGeometry x="50" y="750" width="150" height="60" as="geometry" />
        </mxCell>
        <mxCell id="b0M6ai2X8rx_W-r-B3q4-1781" value="Schedule" style="rounded=1;whiteSpace=wrap;html=1;shadow=0;labelBackgroundColor=none;strokeColor=none;strokeWidth=3;fillColor=#67AB9F;fontFamily=Helvetica;fontSize=14;fontColor=#FFFFFF;align=center;spacing=5;fontStyle=1;arcSize=7;perimeterSpacing=2;" vertex="1" parent="1">
          <mxGeometry x="50" y="830" width="150" height="60" as="geometry" />
        </mxCell>
        <mxCell id="b0M6ai2X8rx_W-r-B3q4-1783" value="Settings" style="rounded=1;whiteSpace=wrap;html=1;shadow=0;labelBackgroundColor=none;strokeColor=none;strokeWidth=3;fillColor=#999900;fontFamily=Helvetica;fontSize=14;fontColor=#FFFFFF;align=center;spacing=5;fontStyle=1;arcSize=7;perimeterSpacing=2;" vertex="1" parent="1">
          <mxGeometry x="50" y="910" width="150" height="60" as="geometry" />
        </mxCell>
        <mxCell id="b0M6ai2X8rx_W-r-B3q4-1784" value="Speakers" style="rounded=1;whiteSpace=wrap;html=1;shadow=0;labelBackgroundColor=none;strokeColor=none;strokeWidth=3;fillColor=#99004D;fontFamily=Helvetica;fontSize=14;fontColor=#FFFFFF;align=center;spacing=5;fontStyle=1;arcSize=7;perimeterSpacing=2;" vertex="1" parent="1">
          <mxGeometry x="50" y="990" width="150" height="60" as="geometry" />
        </mxCell>
        <mxCell id="b0M6ai2X8rx_W-r-B3q4-1785" value="Workshops" style="rounded=1;whiteSpace=wrap;html=1;shadow=0;labelBackgroundColor=none;strokeColor=none;strokeWidth=3;fillColor=#994C00;fontFamily=Helvetica;fontSize=14;fontColor=#FFFFFF;align=center;spacing=5;fontStyle=1;arcSize=7;perimeterSpacing=2;" vertex="1" parent="1">
          <mxGeometry x="50" y="1011" width="150" height="60" as="geometry" />
        </mxCell>
        <mxCell id="b0M6ai2X8rx_W-r-B3q4-1786" value="Domains" style="rounded=1;whiteSpace=wrap;html=1;shadow=0;labelBackgroundColor=none;strokeColor=none;strokeWidth=3;fillColor=#35678C;fontFamily=Helvetica;fontSize=16;fontColor=#FFFFFF;align=center;fontStyle=1;spacing=5;arcSize=7;perimeterSpacing=2;" vertex="1" parent="1">
          <mxGeometry x="300" y="70" width="590" height="40" as="geometry" />
        </mxCell>
        <mxCell id="b0M6ai2X8rx_W-r-B3q4-1787" value="Presentation" style="rounded=1;whiteSpace=wrap;html=1;shadow=0;labelBackgroundColor=none;strokeColor=none;strokeWidth=3;fillColor=#407CA8;fontFamily=Helvetica;fontSize=16;fontColor=#FFFFFF;align=center;fontStyle=1;spacing=5;arcSize=7;perimeterSpacing=2;" vertex="1" parent="1">
          <mxGeometry x="970" y="70" width="200" height="90" as="geometry" />
        </mxCell>
        <mxCell id="b0M6ai2X8rx_W-r-B3q4-1788" value="Entities" style="rounded=1;whiteSpace=wrap;html=1;shadow=0;labelBackgroundColor=none;strokeColor=none;strokeWidth=3;fillColor=#407CA8;fontFamily=Helvetica;fontSize=16;fontColor=#FFFFFF;align=center;fontStyle=1;spacing=5;arcSize=7;perimeterSpacing=2;" vertex="1" parent="1">
          <mxGeometry x="300" y="120" width="190" height="40" as="geometry" />
        </mxCell>
        <mxCell id="b0M6ai2X8rx_W-r-B3q4-1790" value="AuthenticationPage" style="rounded=1;whiteSpace=wrap;html=1;shadow=0;labelBackgroundColor=none;strokeColor=#6c8ebf;strokeWidth=3;fillColor=#dae8fc;fontFamily=Helvetica;fontSize=14;align=center;spacing=5;arcSize=7;perimeterSpacing=2;" vertex="1" parent="1">
          <mxGeometry x="995" y="361" width="150" height="30" as="geometry" />
        </mxCell>
        <mxCell id="b0M6ai2X8rx_W-r-B3q4-1791" value="" style="endArrow=none;html=1;rounded=0;fillColor=#fad7ac;strokeColor=#FFD966;strokeWidth=3;" edge="1" parent="1">
          <mxGeometry width="50" height="50" relative="1" as="geometry">
            <mxPoint x="20" y="326" as="sourcePoint" />
            <mxPoint x="1920" y="326" as="targetPoint" />
          </mxGeometry>
        </mxCell>
        <mxCell id="b0M6ai2X8rx_W-r-B3q4-1792" value="" style="endArrow=none;html=1;rounded=0;fillColor=#fad7ac;strokeColor=#FFD966;strokeWidth=3;" edge="1" parent="1">
          <mxGeometry width="50" height="50" relative="1" as="geometry">
            <mxPoint x="20" y="180" as="sourcePoint" />
            <mxPoint x="1920" y="180" as="targetPoint" />
          </mxGeometry>
        </mxCell>
        <mxCell id="b0M6ai2X8rx_W-r-B3q4-1793" value="" style="endArrow=none;html=1;rounded=0;fillColor=#fad7ac;strokeColor=#FFD966;strokeWidth=3;" edge="1" parent="1">
          <mxGeometry width="50" height="50" relative="1" as="geometry">
            <mxPoint x="260" y="70" as="sourcePoint" />
            <mxPoint x="260" y="910" as="targetPoint" />
          </mxGeometry>
        </mxCell>
        <mxCell id="b0M6ai2X8rx_W-r-B3q4-1795" value="" style="endArrow=none;html=1;rounded=0;fillColor=#fad7ac;strokeColor=#FFD966;strokeWidth=3;" edge="1" parent="1">
          <mxGeometry width="50" height="50" relative="1" as="geometry">
            <mxPoint x="20" y="423" as="sourcePoint" />
            <mxPoint x="1920" y="423" as="targetPoint" />
          </mxGeometry>
        </mxCell>
        <mxCell id="b0M6ai2X8rx_W-r-B3q4-1796" value="" style="endArrow=none;html=1;rounded=0;fillColor=#fad7ac;strokeColor=#FFD966;strokeWidth=3;" edge="1" parent="1">
          <mxGeometry width="50" height="50" relative="1" as="geometry">
            <mxPoint x="930" y="70" as="sourcePoint" />
            <mxPoint x="930" y="910" as="targetPoint" />
          </mxGeometry>
        </mxCell>
        <mxCell id="b0M6ai2X8rx_W-r-B3q4-1797" value="" style="endArrow=none;html=1;rounded=0;fillColor=#fad7ac;strokeColor=#FFD966;strokeWidth=3;" edge="1" parent="1">
          <mxGeometry width="50" height="50" relative="1" as="geometry">
            <mxPoint x="20" y="577" as="sourcePoint" />
            <mxPoint x="1920" y="577" as="targetPoint" />
          </mxGeometry>
        </mxCell>
        <mxCell id="b0M6ai2X8rx_W-r-B3q4-1798" value="" style="endArrow=none;html=1;rounded=0;fillColor=#fad7ac;strokeColor=#FFD966;strokeWidth=3;" edge="1" parent="1">
          <mxGeometry width="50" height="50" relative="1" as="geometry">
            <mxPoint x="1210" y="70" as="sourcePoint" />
            <mxPoint x="1210" y="910" as="targetPoint" />
          </mxGeometry>
        </mxCell>
        <mxCell id="b0M6ai2X8rx_W-r-B3q4-1799" value="Datasources" style="rounded=1;whiteSpace=wrap;html=1;shadow=0;labelBackgroundColor=none;strokeColor=none;strokeWidth=3;fillColor=#407CA8;fontFamily=Helvetica;fontSize=16;fontColor=#FFFFFF;align=center;fontStyle=1;spacing=5;arcSize=7;perimeterSpacing=2;" vertex="1" parent="1">
          <mxGeometry x="1250" y="70" width="950" height="40" as="geometry" />
        </mxCell>
        <mxCell id="b0M6ai2X8rx_W-r-B3q4-1800" value="Repositories" style="rounded=1;whiteSpace=wrap;html=1;shadow=0;labelBackgroundColor=none;strokeColor=none;strokeWidth=3;fillColor=#407CA8;fontFamily=Helvetica;fontSize=16;fontColor=#FFFFFF;align=center;fontStyle=1;spacing=5;arcSize=7;perimeterSpacing=2;" vertex="1" parent="1">
          <mxGeometry x="500" y="120" width="190" height="40" as="geometry" />
        </mxCell>
        <mxCell id="b0M6ai2X8rx_W-r-B3q4-1801" value="Usecases" style="rounded=1;whiteSpace=wrap;html=1;shadow=0;labelBackgroundColor=none;strokeColor=none;strokeWidth=3;fillColor=#407CA8;fontFamily=Helvetica;fontSize=16;fontColor=#FFFFFF;align=center;fontStyle=1;spacing=5;arcSize=7;perimeterSpacing=2;" vertex="1" parent="1">
          <mxGeometry x="700" y="120" width="190" height="40" as="geometry" />
        </mxCell>
        <mxCell id="b0M6ai2X8rx_W-r-B3q4-1802" value="ConferenceItem" style="rounded=1;whiteSpace=wrap;html=1;shadow=0;labelBackgroundColor=none;strokeColor=#6c8ebf;strokeWidth=3;fillColor=#dae8fc;fontFamily=Helvetica;fontSize=14;align=center;spacing=5;fontStyle=0;arcSize=7;perimeterSpacing=2;" vertex="1" parent="1">
          <mxGeometry x="320" y="446" width="150" height="30" as="geometry" />
        </mxCell>
        <mxCell id="b0M6ai2X8rx_W-r-B3q4-1803" value="Conference" style="rounded=1;whiteSpace=wrap;html=1;shadow=0;labelBackgroundColor=none;strokeColor=#6c8ebf;strokeWidth=3;fillColor=#dae8fc;fontFamily=Helvetica;fontSize=14;align=center;spacing=5;fontStyle=0;arcSize=7;perimeterSpacing=2;" vertex="1" parent="1">
          <mxGeometry x="320" y="486" width="150" height="30" as="geometry" />
        </mxCell>
        <mxCell id="b0M6ai2X8rx_W-r-B3q4-1806" style="edgeStyle=orthogonalEdgeStyle;rounded=0;orthogonalLoop=1;jettySize=auto;html=1;exitX=1;exitY=0.5;exitDx=0;exitDy=0;" edge="1" parent="1" source="b0M6ai2X8rx_W-r-B3q4-1804">
          <mxGeometry relative="1" as="geometry">
            <mxPoint x="460" y="546" as="targetPoint" />
          </mxGeometry>
        </mxCell>
        <mxCell id="b0M6ai2X8rx_W-r-B3q4-1804" value="Conferences" style="rounded=1;whiteSpace=wrap;html=1;shadow=0;labelBackgroundColor=none;strokeColor=#6c8ebf;strokeWidth=3;fillColor=#dae8fc;fontFamily=Helvetica;fontSize=14;align=center;spacing=5;fontStyle=0;arcSize=7;perimeterSpacing=2;" vertex="1" parent="1">
          <mxGeometry x="320" y="526" width="150" height="30" as="geometry" />
        </mxCell>
        <mxCell id="b0M6ai2X8rx_W-r-B3q4-1807" value="ConferencesRepository" style="rounded=1;whiteSpace=wrap;html=1;shadow=0;labelBackgroundColor=none;strokeColor=#6c8ebf;strokeWidth=3;fillColor=#dae8fc;fontFamily=Helvetica;fontSize=14;align=center;spacing=5;fontStyle=0;arcSize=7;perimeterSpacing=2;" vertex="1" parent="1">
          <mxGeometry x="520" y="445" width="150" height="30" as="geometry" />
        </mxCell>
        <mxCell id="b0M6ai2X8rx_W-r-B3q4-1808" value="ThemeModeRepository" style="rounded=1;whiteSpace=wrap;html=1;shadow=0;labelBackgroundColor=none;strokeColor=#6c8ebf;strokeWidth=3;fillColor=#dae8fc;fontFamily=Helvetica;fontSize=14;align=center;spacing=5;fontStyle=0;arcSize=7;perimeterSpacing=2;" vertex="1" parent="1">
          <mxGeometry x="520" y="486" width="150" height="30" as="geometry" />
        </mxCell>
        <mxCell id="b0M6ai2X8rx_W-r-B3q4-1809" value="GetAllConferences" style="rounded=1;whiteSpace=wrap;html=1;shadow=0;labelBackgroundColor=none;strokeColor=#6c8ebf;strokeWidth=3;fillColor=#dae8fc;fontFamily=Helvetica;fontSize=14;align=center;spacing=5;fontStyle=0;arcSize=7;perimeterSpacing=2;" vertex="1" parent="1">
          <mxGeometry x="720" y="445" width="150" height="30" as="geometry" />
        </mxCell>
        <mxCell id="b0M6ai2X8rx_W-r-B3q4-1810" value="GetThemeMode" style="rounded=1;whiteSpace=wrap;html=1;shadow=0;labelBackgroundColor=none;strokeColor=#6c8ebf;strokeWidth=3;fillColor=#dae8fc;fontFamily=Helvetica;fontSize=14;align=center;spacing=5;fontStyle=0;arcSize=7;perimeterSpacing=2;" vertex="1" parent="1">
          <mxGeometry x="720" y="486" width="150" height="30" as="geometry" />
        </mxCell>
        <mxCell id="b0M6ai2X8rx_W-r-B3q4-1811" value="UpdateThemeMode" style="rounded=1;whiteSpace=wrap;html=1;shadow=0;labelBackgroundColor=none;strokeColor=#6c8ebf;strokeWidth=3;fillColor=#dae8fc;fontFamily=Helvetica;fontSize=14;align=center;spacing=5;fontStyle=0;arcSize=7;perimeterSpacing=2;" vertex="1" parent="1">
          <mxGeometry x="720" y="526" width="150" height="30" as="geometry" />
        </mxCell>
        <mxCell id="b0M6ai2X8rx_W-r-B3q4-1812" value="HomePage" style="rounded=1;whiteSpace=wrap;html=1;shadow=0;labelBackgroundColor=none;strokeColor=#6c8ebf;strokeWidth=3;fillColor=#dae8fc;fontFamily=Helvetica;fontSize=14;align=center;spacing=5;fontStyle=0;arcSize=7;perimeterSpacing=2;" vertex="1" parent="1">
          <mxGeometry x="995" y="446" width="150" height="30" as="geometry" />
        </mxCell>
        <mxCell id="b0M6ai2X8rx_W-r-B3q4-1813" value="ConferenceTimerMixin" style="rounded=1;whiteSpace=wrap;html=1;shadow=0;labelBackgroundColor=none;strokeColor=#6c8ebf;strokeWidth=3;fillColor=#dae8fc;fontFamily=Helvetica;fontSize=14;align=center;spacing=5;fontStyle=0;arcSize=7;perimeterSpacing=2;" vertex="1" parent="1">
          <mxGeometry x="995" y="486" width="150" height="30" as="geometry" />
        </mxCell>
        <mxCell id="b0M6ai2X8rx_W-r-B3q4-1814" value="CustomTimer" style="rounded=1;whiteSpace=wrap;html=1;shadow=0;labelBackgroundColor=none;strokeColor=#6c8ebf;strokeWidth=3;fillColor=#dae8fc;fontFamily=Helvetica;fontSize=14;align=center;spacing=5;fontStyle=0;arcSize=7;perimeterSpacing=2;" vertex="1" parent="1">
          <mxGeometry x="995" y="526" width="150" height="30" as="geometry" />
        </mxCell>
        <mxCell id="b0M6ai2X8rx_W-r-B3q4-1817" value="Data" style="rounded=1;whiteSpace=wrap;html=1;shadow=0;labelBackgroundColor=none;strokeColor=none;strokeWidth=3;fillColor=#407CA8;fontFamily=Helvetica;fontSize=16;fontColor=#FFFFFF;align=center;fontStyle=1;spacing=5;arcSize=7;perimeterSpacing=2;" vertex="1" parent="1">
          <mxGeometry x="1250" y="120" width="240" height="40" as="geometry" />
        </mxCell>
        <mxCell id="b0M6ai2X8rx_W-r-B3q4-1818" value="Models" style="rounded=1;whiteSpace=wrap;html=1;shadow=0;labelBackgroundColor=none;strokeColor=none;strokeWidth=3;fillColor=#407CA8;fontFamily=Helvetica;fontSize=16;fontColor=#FFFFFF;align=center;fontStyle=1;spacing=5;arcSize=7;perimeterSpacing=2;" vertex="1" parent="1">
          <mxGeometry x="1500" y="120" width="310" height="40" as="geometry" />
        </mxCell>
        <mxCell id="b0M6ai2X8rx_W-r-B3q4-1819" value="ConferencesLocalDatasource" style="rounded=1;whiteSpace=wrap;html=1;shadow=0;labelBackgroundColor=none;strokeColor=#6c8ebf;strokeWidth=3;fillColor=#dae8fc;fontFamily=Helvetica;fontSize=14;align=center;spacing=5;arcSize=7;perimeterSpacing=2;" vertex="1" parent="1">
          <mxGeometry x="1250" y="193" width="240" height="30" as="geometry" />
        </mxCell>
        <mxCell id="b0M6ai2X8rx_W-r-B3q4-1820" value="ConferencesRemoteDatasource" style="rounded=1;whiteSpace=wrap;html=1;shadow=0;labelBackgroundColor=none;strokeColor=#6c8ebf;strokeWidth=3;fillColor=#dae8fc;fontFamily=Helvetica;fontSize=14;align=center;spacing=5;arcSize=7;perimeterSpacing=2;" vertex="1" parent="1">
          <mxGeometry x="1250" y="238" width="240" height="30" as="geometry" />
        </mxCell>
        <mxCell id="b0M6ai2X8rx_W-r-B3q4-1821" value="ThemeModeDatasource" style="rounded=1;whiteSpace=wrap;html=1;shadow=0;labelBackgroundColor=none;strokeColor=#6c8ebf;strokeWidth=3;fillColor=#dae8fc;fontFamily=Helvetica;fontSize=14;align=center;spacing=5;arcSize=7;perimeterSpacing=2;" vertex="1" parent="1">
          <mxGeometry x="1250" y="280" width="240" height="30" as="geometry" />
        </mxCell>
        <mxCell id="b0M6ai2X8rx_W-r-B3q4-1822" value="AuthorModel" style="rounded=1;whiteSpace=wrap;html=1;shadow=0;labelBackgroundColor=none;strokeColor=#6c8ebf;strokeWidth=3;fillColor=#dae8fc;fontFamily=Helvetica;fontSize=14;align=center;spacing=5;arcSize=7;perimeterSpacing=2;" vertex="1" parent="1">
          <mxGeometry x="1500" y="193" width="150" height="30" as="geometry" />
        </mxCell>
        <mxCell id="b0M6ai2X8rx_W-r-B3q4-1824" value="ConferenceHomePageSchduleItem" style="rounded=1;whiteSpace=wrap;html=1;shadow=0;labelBackgroundColor=none;strokeColor=#6c8ebf;strokeWidth=3;fillColor=#dae8fc;fontFamily=Helvetica;fontSize=14;align=center;spacing=5;arcSize=7;perimeterSpacing=2;" vertex="1" parent="1">
          <mxGeometry x="1500" y="236.5" width="310" height="30" as="geometry" />
        </mxCell>
        <mxCell id="b0M6ai2X8rx_W-r-B3q4-1825" value="ConferenceModel" style="rounded=1;whiteSpace=wrap;html=1;shadow=0;labelBackgroundColor=none;strokeColor=#6c8ebf;strokeWidth=3;fillColor=#dae8fc;fontFamily=Helvetica;fontSize=14;align=center;spacing=5;arcSize=7;perimeterSpacing=2;" vertex="1" parent="1">
          <mxGeometry x="1660" y="193" width="150" height="30" as="geometry" />
        </mxCell>
        <mxCell id="b0M6ai2X8rx_W-r-B3q4-1826" value="ConferencesModel" style="rounded=1;whiteSpace=wrap;html=1;shadow=0;labelBackgroundColor=none;strokeColor=#6c8ebf;strokeWidth=3;fillColor=#dae8fc;fontFamily=Helvetica;fontSize=14;align=center;spacing=5;arcSize=7;perimeterSpacing=2;" vertex="1" parent="1">
          <mxGeometry x="1660" y="280" width="150" height="30" as="geometry" />
        </mxCell>
        <mxCell id="b0M6ai2X8rx_W-r-B3q4-1827" value="Repositories" style="rounded=1;whiteSpace=wrap;html=1;shadow=0;labelBackgroundColor=none;strokeColor=none;strokeWidth=3;fillColor=#407CA8;fontFamily=Helvetica;fontSize=16;fontColor=#FFFFFF;align=center;fontStyle=1;spacing=5;arcSize=7;perimeterSpacing=2;" vertex="1" parent="1">
          <mxGeometry x="1820" y="120" width="240" height="40" as="geometry" />
        </mxCell>
        <mxCell id="b0M6ai2X8rx_W-r-B3q4-1828" value="ConferencesRepository" style="rounded=1;whiteSpace=wrap;html=1;shadow=0;labelBackgroundColor=none;strokeColor=#6c8ebf;strokeWidth=3;fillColor=#dae8fc;fontFamily=Helvetica;fontSize=14;align=center;spacing=5;arcSize=7;perimeterSpacing=2;" vertex="1" parent="1">
          <mxGeometry x="1820" y="193" width="240" height="30" as="geometry" />
        </mxCell>
        <mxCell id="b0M6ai2X8rx_W-r-B3q4-1829" value="ThemeModeRepository" style="rounded=1;whiteSpace=wrap;html=1;shadow=0;labelBackgroundColor=none;strokeColor=#6c8ebf;strokeWidth=3;fillColor=#dae8fc;fontFamily=Helvetica;fontSize=14;align=center;spacing=5;arcSize=7;perimeterSpacing=2;" vertex="1" parent="1">
          <mxGeometry x="1820" y="236.5" width="240" height="30" as="geometry" />
        </mxCell>
      </root>
    </mxGraphModel>
  </diagram>
</mxfile>
